HIERARCHY
ROOT hip
{
  OFFSET 0 0 0
  CHANNELS 6 Xposition Yposition Zposition Zrotation Yrotation Xrotation
  JOINT abdomen
  {
    OFFSET 0 20.6881 -0.73152
    CHANNELS 3 Zrotation Xrotation Yrotation
    JOINT chest
    {
      OFFSET 0 11.7043 -0.48768
      CHANNELS 3 Zrotation Xrotation Yrotation
      JOINT neck
      {
        OFFSET 0 22.1894 -2.19456
        CHANNELS 3 Zrotation Xrotation Yrotation
        JOINT head
        {
          OFFSET -0.24384 7.07133 1.2192
          CHANNELS 3 Zrotation Xrotation Yrotation
          JOINT leftEye
          {
            OFFSET 4.14528 8.04674 8.04672
            CHANNELS 3 Zrotation Xrotation Yrotation
            End Site
            {
              OFFSET 1 0 0
            }
          }
          JOINT rightEye
          {
            OFFSET -3.6576 8.04674 8.04672
            CHANNELS 3 Zrotation Xrotation Yrotation
            End Site
            {
              OFFSET 1 0 0
            }
          }
        }
      }
      JOINT rCollar
      {
        OFFSET -2.68224 19.2634 -4.8768
        CHANNELS 3 Zrotation Xrotation Yrotation
        JOINT rShldr
        {
          OFFSET -8.77824 -1.95073 1.46304
          CHANNELS 3 Zrotation Xrotation Yrotation
          JOINT rForeArm
          {
            OFFSET -28.1742 -1.7115 0.48768
            CHANNELS 3 Zrotation Xrotation Yrotation
            JOINT rHand
            {
              OFFSET -22.5879 0.773209 7.07136
              CHANNELS 3 Zrotation Xrotation Yrotation
              JOINT rThumb1
              {
                OFFSET -1.2192 -0.487915 3.41376
                CHANNELS 3 Zrotation Xrotation Yrotation
                JOINT rThumb2
                {
                  OFFSET -3.37035 -0.52449 3.41376
                  CHANNELS 3 Zrotation Xrotation Yrotation
                  End Site
                  {
                    OFFSET -1.78271 -1.18214 1.43049
                  }
                }
              }
              JOINT rIndex1
              {
                OFFSET -7.75947 0.938293 5.60832
                CHANNELS 3 Zrotation Xrotation Yrotation
                JOINT rIndex2
                {
                  OFFSET -2.54057 -0.884171 1.56538
                  CHANNELS 3 Zrotation Xrotation Yrotation
                  End Site
                  {
                    OFFSET -1.62519 -0.234802 1.16502
                  }
                }
              }
              JOINT rMid1
              {
                OFFSET -8.24714 1.18213 3.41376
                CHANNELS 3 Zrotation Xrotation Yrotation
                JOINT rMid2
                {
                  OFFSET -3.10165 -0.590103 1.0647
                  CHANNELS 3 Zrotation Xrotation Yrotation
                  End Site
                  {
                    OFFSET -2.48547 -0.328903 0.83742
                  }
                }
              }
              JOINT rRing1
              {
                OFFSET -8.82822 0.546677 1.51678
                CHANNELS 3 Zrotation Xrotation Yrotation
                JOINT rRing2
                {
                  OFFSET -2.60934 -0.819778 -0.0198488
                  CHANNELS 3 Zrotation Xrotation Yrotation
                  End Site
                  {
                    OFFSET -2.33842 -0.294052 0.168128
                  }
                }
              }
              JOINT rPinky1
              {
                OFFSET -8.27202 -0.0477905 -0.4584
                CHANNELS 3 Zrotation Xrotation Yrotation
                JOINT rPinky2
                {
                  OFFSET -1.82734 -0.647385 -0.700984
                  CHANNELS 3 Zrotation Xrotation Yrotation
                  End Site
                  {
                    OFFSET -1.69225 -0.51767 -0.607171
                  }
                }
              }
            }
          }
        }
      }
      JOINT lCollar
      {
        OFFSET 2.68224 19.2634 -4.8768
        CHANNELS 3 Zrotation Xrotation Yrotation
        JOINT lShldr
        {
          OFFSET 8.77824 -1.95073 1.46304
          CHANNELS 3 Zrotation Xrotation Yrotation
          JOINT lForeArm
          {
            OFFSET 28.1742 -1.7115 0.48768
            CHANNELS 3 Zrotation Xrotation Yrotation
            JOINT lHand
            {
              OFFSET 22.5879 0.773209 7.07136
              CHANNELS 3 Zrotation Xrotation Yrotation
              JOINT lThumb1
              {
                OFFSET 1.2192 -0.487915 3.41376
                CHANNELS 3 Zrotation Xrotation Yrotation
                JOINT lThumb2
                {
                  OFFSET 3.37035 -0.52449 3.41376
                  CHANNELS 3 Zrotation Xrotation Yrotation
                  End Site
                  {
                    OFFSET 1.78271 -1.18214 1.43049
                  }
                }
              }
              JOINT lIndex1
              {
                OFFSET 7.75947 0.938293 5.60832
                CHANNELS 3 Zrotation Xrotation Yrotation
                JOINT lIndex2
                {
                  OFFSET 2.54057 -0.884171 1.56538
                  CHANNELS 3 Zrotation Xrotation Yrotation
                  End Site
                  {
                    OFFSET 1.62519 -0.234802 1.16502
                  }
                }
              }
              JOINT lMid1
              {
                OFFSET 8.24714 1.18213 3.41376
                CHANNELS 3 Zrotation Xrotation Yrotation
                JOINT lMid2
                {
                  OFFSET 3.10165 -0.590103 1.0647
                  CHANNELS 3 Zrotation Xrotation Yrotation
                  End Site
                  {
                    OFFSET 2.48547 -0.328903 0.83742
                  }
                }
              }
              JOINT lRing1
              {
                OFFSET 8.82822 0.546677 1.51678
                CHANNELS 3 Zrotation Xrotation Yrotation
                JOINT lRing2
                {
                  OFFSET 2.60934 -0.819778 -0.0198488
                  CHANNELS 3 Zrotation Xrotation Yrotation
                  End Site
                  {
                    OFFSET 2.33842 -0.294052 0.168128
                  }
                }
              }
              JOINT lPinky1
              {
                OFFSET 8.27202 -0.0477905 -0.4584
                CHANNELS 3 Zrotation Xrotation Yrotation
                JOINT lPinky2
                {
                  OFFSET 1.82734 -0.647385 -0.700984
                  CHANNELS 3 Zrotation Xrotation Yrotation
                  End Site
                  {
                    OFFSET 1.69225 -0.51767 -0.607171
                  }
                }
              }
            }
          }
        }
      }
    }
  }
  JOINT rButtock
  {
    OFFSET -8.77824 4.35084 1.2192
    CHANNELS 3 Zrotation Xrotation Yrotation
    JOINT rThigh
    {
      OFFSET 0 -1.70687 -2.19456
      CHANNELS 3 Zrotation Xrotation Yrotation
      JOINT rShin
      {
        OFFSET 0 -36.8199 0.73152
        CHANNELS 3 Zrotation Xrotation Yrotation
        JOINT rFoot
        {
          OFFSET 0.73152 -45.1104 -5.12064
          CHANNELS 3 Zrotation Xrotation Yrotation
          End Site
          {
            OFFSET -1.1221 -3.69964 12.103
          }
        }
      }
    }
  }
  JOINT lButtock
  {
    OFFSET 8.77824 4.35084 1.2192
    CHANNELS 3 Zrotation Xrotation Yrotation
    JOINT lThigh
    {
      OFFSET 0 -1.70687 -2.19456
      CHANNELS 3 Zrotation Xrotation Yrotation
      JOINT lShin
      {
        OFFSET 0 -36.8199 0.73152
        CHANNELS 3 Zrotation Xrotation Yrotation
        JOINT lFoot
        {
          OFFSET -0.73152 -45.1104 -5.12064
          CHANNELS 3 Zrotation Xrotation Yrotation
          End Site
          {
            OFFSET 1.1221 -3.69964 12.103
          }
        }
      }
    }
  }
}
MOTION
Frames:	4
Frame Time:	0.03333
-49.3137 62.3054 -25.5579 -3.913602 -44.359218 1.664953 -3.569621 10.162006 -180.0 -5.97457 7.755393 175.074852 -15.657371 30.952444 -89.196661 41.091874 8.369739 43.331564 -6.345012 -3.572494 58.728267 26.397355 -6.596846 -27.61268 -159.962864 -31.6909 162.909377 145.997117 41.848332 -145.630444 -4.027541 -29.531668 77.106824 -16.304788 57.11349 12.227757 -176.413387 -11.26873 84.191349 -95.591195 -7.882862 20.557191 92.027606 -68.998178 41.861485 -0.501542 29.693186 -9.360159 -161.869697 -7.59903 138.869877 -167.204272 -22.620392 143.295567 4.487311 -1.54877 1.424815 -157.00048 -45.418982 -179.113898 -134.052559 4.286554 -152.190935 -30.81602 76.610749 78.83222 157.745113 -20.878289 -169.633285 149.291569 -82.137674 98.535486 119.098384 -5.931686 -3.880623 161.681646 -29.175697 -159.947041 -164.119616 -26.772134 -84.323129 13.605026 -57.430117 14.779329 154.609985 -26.353584 -120.60637 143.113177 -12.428858 -122.890062 -163.458654 -64.833975 -131.031715 171.312981 9.401491 -141.779979 -6.965283 -13.616989 1.299278 69.295968 82.331846 -76.266425 11.815851 -22.052176 7.888659 -30.41121 41.013032 -2.742999 -85.865986 54.622859 -42.221884 103.457803 -24.728621 0.0 -40.760077 67.33559 140.469344 -150.540865 3.10784 93.522386 -0.188667 -4.625462 -2.338274 27.136394 -29.272977 90.126025 92.509143 26.431787 -4.368343 -82.383879 38.202743 -36.411753
-50.226499999999994 62.1297 -26.137 -4.069496 -44.52811 1.811223 -3.62166 15.052327 -0.0 6.184562 -12.641916 -3.925362 7.400004 27.169652 88.980692 -37.36216 12.982393 -131.704916 -6.695064 -2.859169 46.211883 31.443715 -6.573554 -23.061158 -162.197651 -49.179484 165.64075 111.67957 58.780327 -107.283506 -26.589986 -16.991941 71.612955 -5.716532 36.212746 7.00351 88.840674 -45.406126 38.97128 -141.192705 -68.976673 -165.732938 -144.416198 -8.801314 113.067254 -171.798973 -13.999878 115.310348 -161.076454 -5.818014 138.918408 -126.595866 51.079006 117.664513 -140.852973 7.30696 175.332516 -151.006564 -32.163297 -177.389466 -132.266275 -15.090092 -145.786832 2.694451 41.02064 30.961309 4.143949 18.443026 -0.823216 -79.009973 -16.998199 -10.535331 -18.38339 65.163461 -93.97803 21.413167 -49.026182 16.781408 168.741129 -3.891122 -87.623495 156.448513 2.694822 -83.142685 68.760432 41.774296 -58.395987 0.211006 3.624327 16.663347 45.368872 50.393848 -35.955288 12.522224 49.039871 -20.77809 -7.17505 -8.838103 -0.520701 68.556184 -82.565393 83.624312 13.331858 -25.265725 7.341414 2.040496 -24.35848 20.946864 -83.459592 53.119577 -41.850697 102.381486 -29.136006 -149.26196 -4.153555 -75.530428 93.663743 153.06012 5.223302 -82.563363 1.714165 -4.277973 -2.071083 28.161258 -30.306145 -115.888251 -95.614585 -66.678432 -2.930946 -163.665774 25.692847 -105.569669
-51.0722 62.159600000000005 -26.6496 -3.644159 -44.543683 1.658302 -3.912452 14.461537 0.0 6.378425 -12.231686 -3.306696 2.327968 37.558585 160.950605 -8.068012 47.310796 154.744753 -7.965116 -2.572121 35.744574 33.242212 -5.641141 -18.743711 -155.070537 -4.779998 159.455911 -26.829073 3.937861 -15.436796 -59.998968 -27.0305 -158.474592 37.313408 -52.554081 32.448041 -94.709214 32.806685 53.048706 2.501548 -1.697508 43.249462 -146.421811 -11.184231 114.298405 -12.747538 24.132166 -1.119899 -39.679433 49.120512 34.046333 -160.495313 6.145185 144.694464 2.845285 -7.184052 1.316648 -76.101781 82.78407 88.265936 -52.919552 -64.093458 -56.141637 -17.078751 -7.368171 2.291104 152.504167 23.6866 -157.951536 43.793933 -17.497753 -37.799577 -122.780522 -69.010682 129.743575 21.851286 -37.697177 11.7012 -5.506661 -6.872105 -2.044178 -2.382372 -1.616912 -0.155559 149.319479 -17.354732 -119.642864 156.914395 -42.881019 -122.7482 158.062285 7.502543 -136.627788 152.430533 19.353359 -127.045617 -7.531265 -10.379086 -0.10017 -3.752395 0.496035 3.622639 147.839448 10.461349 145.908428 165.360081 16.786948 147.267098 5.737612 6.129717 -7.994068 -62.377882 -55.948437 -129.705579 -71.122325 24.167409 168.734926 -48.221831 58.968016 -24.308203 -0.329705 -4.254851 -4.435056 29.953457 -27.194597 -28.020801 -91.327367 32.479158 172.185948 -76.871685 31.337189 -39.54858
-51.8319 62.195299999999996 -27.1285 -3.290441 -44.690402 1.547109 -4.144598 14.037885 0.83918 6.365791 -12.09767 -3.460682 6.302931 23.827144 68.370073 -35.386397 0.147628 -115.90209 -8.076626 -1.958762 27.223673 38.284799 -4.71003 -13.513917 -14.870543 41.764027 18.162119 -95.993647 30.573489 107.571089 -173.395703 26.492651 -102.743056 -18.238623 61.509367 12.986816 179.34255 -15.746271 84.352303 116.679828 -42.976697 93.547212 11.127497 -15.706935 1.324434 7.805246 18.993952 1.236227 -161.292264 -7.530412 139.585161 -22.891659 47.849351 22.384022 -95.246924 -74.226476 -115.072034 -72.162786 -82.859985 -94.1011 -136.749525 -9.641672 -148.306066 -5.204573 -45.219847 -0.71615 156.962887 -4.134415 -164.276226 -31.184226 -80.918207 -84.335755 2.070479 -58.286687 -102.816318 24.878901 -60.761146 25.713637 172.737593 -9.365435 -86.754445 78.107826 10.626144 -23.608661 -8.341898 -10.256631 1.720893 171.007227 -5.645019 -102.567748 -6.055971 -21.939397 -1.44822 -18.517303 -73.577415 10.683436 136.748795 6.05836 -175.237528 -17.653828 27.174537 1.947206 9.828114 -14.482773 1.665124 136.543823 30.580248 138.89284 -20.155761 13.662876 -24.676709 -3.985089 -67.121426 -3.703248 58.269102 59.826749 44.989023 -129.351728 -50.82079 132.903135 -146.185925 78.397266 -24.58897 -162.153635 42.043997 -108.938134 -92.249082 -19.507817 175.876841 172.803035 -2.216165 56.749717
